# Blender 3.3.1
# www.blender.org
mtllib asteroid-3.mtl
o Cube
v 2.179189 1.487679 -2.694804
v 1.422670 -2.936121 -2.963104
v 2.331949 1.535291 2.263057
v 1.561068 -3.122916 2.920691
v -2.436245 0.882213 -2.727550
v -3.192764 -3.541588 -2.995851
v -2.241287 1.377769 2.439027
v -3.012167 -3.280438 3.096661
v -2.905478 -1.904259 5.164899
v -2.905478 0.755622 5.164899
v -0.245598 0.755622 5.164899
v -0.245598 -1.904259 5.164899
v 0.518108 -2.332291 -6.603189
v -1.979587 -2.332291 -6.603189
v 0.518108 0.165405 -6.603189
v -1.979587 0.165405 -6.603189
v 4.736773 0.925129 -3.008464
v 4.736773 -3.149501 -3.008464
v 4.736773 0.925129 1.066166
v 4.736773 -3.149501 1.066166
v -5.265646 -3.134062 -1.911716
v -5.265646 -3.134062 2.162915
v -5.265646 0.940568 2.162915
v -5.265646 0.940568 -1.911716
v 2.037315 3.558233 2.037315
v -2.037315 3.558233 2.037315
v 2.037315 3.558233 -2.037315
v -2.037315 3.558233 -2.037315
v -1.858402 -5.063303 -3.604879
v -1.858402 -5.063303 0.469751
v 2.216228 -5.063303 -3.604879
v 2.216228 -5.063303 0.469751
vn 0.0174 0.1480 0.9888
vn -0.0155 0.9723 0.2333
vn -0.1260 -0.9916 0.0277
vn -0.7843 -0.6197 0.0298
vn 0.4817 0.0234 0.8760
vn 0.9455 -0.0912 -0.3127
vn -0.0000 -0.0000 1.0000
vn 0.7601 -0.0217 0.6494
vn -0.9873 0.0924 -0.1293
vn 0.0313 -0.8509 0.5243
vn -0.0000 -0.0000 -1.0000
vn -0.9712 0.1143 -0.2092
vn 0.0835 -0.9675 -0.2385
vn -0.0812 0.9672 -0.2408
vn 1.0000 -0.0000 -0.0000
vn -0.0562 0.0365 -0.9978
vn -0.0423 -0.9989 -0.0182
vn 0.2274 0.9738 -0.0090
vn -1.0000 -0.0000 -0.0000
vn -0.0693 0.9962 -0.0520
vn -0.3556 0.0611 -0.9326
vn -0.2273 0.0931 0.9694
vn -0.0000 1.0000 -0.0000
vn -0.9924 0.1223 0.0144
vn 0.9940 0.1078 -0.0174
vn -0.0155 0.2739 -0.9616
vn -0.0000 -1.0000 -0.0000
vn 0.9404 0.3400 -0.0067
vn -0.0183 0.3146 -0.9490
vn 0.0268 -0.8016 0.5973
vt 0.713846 0.654594
vt 0.988810 0.136048
vt 0.459165 0.473314
vt 0.005473 0.631883
vt 0.732318 0.138638
vt 0.271800 0.465587
vt 0.713846 0.216681
vt 0.999883 0.385565
vt 0.462587 0.317084
vt 0.000117 0.167140
vt 0.714079 0.403555
vt 0.271858 0.305477
vt 0.201187 0.337764
vt 0.156566 0.339471
vt 0.141173 0.400218
vt 0.209164 0.391687
vt 0.535519 0.409192
vt 0.531029 0.378160
vt 0.569351 0.418591
vt 0.562378 0.383688
vt 0.558679 0.818372
vt 0.999883 0.000117
vt 0.415480 0.564903
vt 0.203388 0.756296
vt 0.789336 0.008105
vt 0.324364 0.556736
vt 0.431318 0.249503
vt 0.323514 0.239079
vt 0.747309 0.569428
vt 0.212368 0.000117
vt 0.970665 0.545301
vt 0.539572 0.051780
vt 0.804970 0.218639
vt 0.813790 0.300448
vt 0.894974 0.202605
vt 0.903209 0.300602
vt 0.429469 0.373098
vt 0.351341 0.354174
vt 0.408550 0.419118
vt 0.359961 0.433111
s 0
usemtl Material
f 7/11/1 3/5/1 25/33/1 26/34/1
f 3/4/2 7/10/2 10/14/2 11/15/2
f 6/9/3 8/12/3 22/28/3 21/27/3
f 8/12/4 6/9/4 29/37/4 30/38/4
f 3/4/5 4/6/5 20/26/5 19/24/5
f 1/1/6 2/3/6 13/17/6 15/19/6
f 12/16/7 11/15/7 10/14/7 9/13/7
f 4/6/8 3/4/8 11/15/8 12/16/8
f 7/10/9 8/12/9 9/13/9 10/14/9
f 8/12/10 4/6/10 12/16/10 9/13/10
f 14/18/11 16/20/11 15/19/11 13/17/11
f 6/9/12 5/7/12 16/20/12 14/18/12
f 2/3/13 6/9/13 14/18/13 13/17/13
f 5/7/14 1/1/14 15/19/14 16/20/14
f 18/23/15 17/21/15 19/24/15 20/26/15
f 2/3/16 1/1/16 17/21/16 18/23/16
f 4/6/17 2/3/17 18/23/17 20/26/17
f 1/2/18 3/5/18 19/25/18 17/22/18
f 22/28/19 23/30/19 24/32/19 21/27/19
f 7/11/20 5/8/20 24/31/20 23/29/20
f 5/7/21 6/9/21 21/27/21 24/32/21
f 8/12/22 7/10/22 23/30/22 22/28/22
f 27/35/23 28/36/23 26/34/23 25/33/23
f 5/8/24 7/11/24 26/34/24 28/36/24
f 3/5/25 1/2/25 27/35/25 25/33/25
f 1/2/26 5/8/26 28/36/26 27/35/26
f 29/37/27 31/39/27 32/40/27 30/38/27
f 2/3/28 4/6/28 32/40/28 31/39/28
f 6/9/29 2/3/29 31/39/29 29/37/29
f 4/6/30 8/12/30 30/38/30 32/40/30
